<svg width="115" height="135" viewBox="0 0 115 135" fill="none" xmlns="http://www.w3.org/2000/svg">
<path d="M92.1827 53.7284C93.2724 52.5862 93.2724 50.7777 92.1827 49.6355L87.3972 44.6621C86.7813 44.0196 86.5444 43.0916 86.7576 42.2349L88.3685 36.0004C88.795 34.4299 87.8473 32.8118 86.2838 32.3835C84.2464 31.8362 82.1854 31.3126 80.148 30.7891C79.2477 30.575 78.5133 29.8611 78.2764 28.9331L76.6655 22.7461C76.2391 21.1756 74.6281 20.2476 73.0646 20.6521L66.9288 22.2464C66.0285 22.5082 65.0809 22.2464 64.4176 21.6277L59.5374 16.821C58.4002 15.7263 56.5998 15.7263 55.4626 16.821L50.5113 21.6277C49.8717 22.2702 48.9478 22.5082 48.0949 22.2702L41.8881 20.6521C40.3245 20.2238 38.7135 21.1518 38.2871 22.7461C37.7422 24.7926 37.2211 26.8628 36.6999 28.9093C36.4867 29.8373 35.7759 30.5512 34.8757 30.7891L28.6925 32.4073C27.129 32.8356 26.205 34.4537 26.6078 36.0242L28.195 42.1636C28.4556 43.0678 28.2424 44.0196 27.5791 44.6859L22.8173 49.6355C21.7276 50.7777 21.7276 52.5862 22.8173 53.7284L27.6028 58.7017C28.2187 59.3442 28.4556 60.2722 28.2424 61.1289L26.6315 67.3634C26.205 68.9339 27.129 70.552 28.7162 70.9804L34.852 72.5747C35.7759 72.7888 36.4867 73.5027 36.7236 74.407L38.3345 80.6177C38.7609 82.1882 40.3719 83.1163 41.9354 82.7117L48.0712 81.1174C49.9191 80.5939 50.7246 81.9503 51.9328 83.0449L55.51 86.5429C56.6471 87.6375 58.4476 87.6375 59.5848 86.5429L62.9725 83.2352C64.2518 81.9978 65.2231 80.6177 66.9525 81.0698L73.1593 82.6879C74.7229 83.1163 76.3338 82.1882 76.7603 80.5939C77.3051 78.5474 77.8263 76.4772 78.3475 74.4308C78.6792 73.0744 79.6742 72.6461 80.8587 72.3843L86.3549 70.9566C87.9184 70.5282 88.8423 68.9101 88.4396 67.3396L86.8524 61.1765C86.5918 60.296 86.8287 59.3204 87.4683 58.6779L92.2538 53.7046L92.1827 53.7284ZM67.3789 75.6206C57.7369 79.6421 46.6261 77.429 39.2347 70.0047C31.8433 62.5804 29.6401 51.4202 33.6438 41.7352C37.6475 32.0503 47.0526 25.7206 57.5 25.7206C71.7616 25.7206 83.3225 37.333 83.3225 51.6581C83.3225 62.1521 77.0445 71.6228 67.3789 75.6206Z" fill="#FF426B"/>
<path d="M57.4998 27.8633C47.9052 27.8633 39.2582 33.6695 35.5862 42.5691C31.9142 51.4688 33.9516 61.7248 40.727 68.5304C47.5024 75.336 57.713 77.3825 66.5732 73.6941C75.4334 70.0058 81.2138 61.3203 81.2138 51.6829C81.2138 38.5238 70.6005 27.8633 57.4998 27.8633ZM70.9559 65.199C65.5071 70.6721 57.3339 72.2902 50.2268 69.3395C43.1197 66.3888 38.5001 59.4166 38.5001 51.6829C38.5001 43.9493 43.1197 37.0009 50.2268 34.0264C57.3339 31.0757 65.5071 32.6938 70.9559 38.1669C78.371 45.6388 78.371 57.7271 70.9559 65.199Z" fill="#584ADD"/>
<path d="M68.3975 46.6122L61.5746 46.4219L59.3004 39.9494C59.0161 39.1641 58.2817 38.6406 57.4762 38.6406C56.6707 38.6406 55.9126 39.1641 55.652 39.9494L53.3778 46.4219L46.6497 46.5884C45.8205 46.5884 45.0624 47.0882 44.7782 47.8972C44.4939 48.7063 44.7782 49.5867 45.4178 50.0864L50.8429 54.2507L48.9003 60.8184C48.6634 61.6036 48.9477 62.4603 49.6347 62.9362C50.298 63.4121 51.1983 63.4359 51.8616 62.96L57.4762 59.0813L63.0434 62.9362C63.7068 63.4121 64.607 63.4359 65.294 62.9362C65.981 62.4603 66.289 61.6036 66.0521 60.7946L64.1095 54.2269L69.5109 50.0626C70.1742 49.5629 70.4348 48.7063 70.1742 47.921C69.9136 47.1358 69.2029 46.6122 68.3738 46.5884L68.3975 46.6122ZM60.0348 54.1317L60.7692 56.6541L58.566 55.1312C57.9026 54.6552 57.0024 54.679 56.3391 55.1312L54.1595 56.6303L54.9176 54.0366C55.1309 53.2751 54.8703 52.4184 54.2306 51.9425L52.0985 50.3244L54.7755 50.253C55.581 50.253 56.2917 49.7057 56.5523 48.9442L57.4525 46.4219L58.3527 48.9442C58.637 49.7295 59.3951 50.253 60.248 50.2292L62.8065 50.3006L60.6744 51.9425C60.0111 52.4422 59.7505 53.3227 60.0111 54.1079L60.0348 54.1317Z" fill="#584ADD"/>
<path d="M71.8795 87.6616L68.1602 86.6859L72.6613 99.0122L75.5989 92.1828C75.8832 91.4927 76.4518 90.9692 77.1625 90.7312C77.8732 90.4933 78.6313 90.5884 79.2709 90.993L85.62 94.1816L81.4031 82.6406C79.958 86.4956 75.8595 88.6372 71.8795 87.6378V87.6616Z" fill="#584ADD"/>
<path d="M33.5958 82.6641L29.3789 94.2051L35.7279 91.0164C36.3676 90.6357 37.1257 90.5405 37.8364 90.7547C38.5471 90.9688 39.1156 91.5161 39.3999 92.2062L42.3138 99.0356L46.815 86.7094C45.5831 87.0425 44.3275 87.3756 43.0956 87.685C39.1156 88.7082 35.0172 86.5428 33.5721 82.6879L33.5958 82.6641Z" fill="#584ADD"/>
<path d="M28.791 124H99.9568C101.361 124 102.498 125.138 102.498 126.542V132.442C102.498 133.846 101.361 134.983 99.9568 134.983H28.791V124Z" fill="#DEDEF3"/>
<path d="M12.4956 134.999H38L43.7088 124H12.4956C11.6692 124 11 124.175 11 124.391V134.609C11 134.825 11.6692 135 12.4956 135V134.999Z" fill="#FF426B"/>
</svg>
