<svg width="115" height="135" viewBox="0 0 115 135" fill="none" xmlns="http://www.w3.org/2000/svg">
<path d="M96.8765 27.2045V30.9395H19V27.2045C19 23.9104 21.7015 21.2129 25.0005 21.2129H90.902C94.201 21.2129 96.9025 23.9104 96.9025 27.2045H96.8765Z" fill="#FF426B"/>
<path d="M65.0816 59.1855L75.5241 67.2262L65.0816 75.2409V72.4137C65.0816 71.3243 64.1984 70.4684 63.1334 70.4684H39.1055V63.984H63.1334C64.1984 63.984 65.0816 63.1021 65.0816 62.0387V59.1855Z" fill="#FF426B"/>
<path d="M19 35.4531V93.0084C19 96.3025 21.7015 99 25.0005 99H90.876C94.175 99 96.8765 96.3025 96.8765 93.0084V35.4531H19ZM79.9141 68.7569L64.3284 80.74C63.9647 81.0253 63.5491 81.155 63.1335 81.155C62.8478 81.155 62.5361 81.0772 62.2763 80.9475C61.6009 80.6103 61.1853 79.9359 61.1853 79.2097V74.3594H37.1573C36.0923 74.3594 35.2091 73.4775 35.2091 72.4141V62.0391C35.2091 60.9497 36.0923 60.0938 37.1573 60.0938H61.1853V55.2434C61.1853 54.4913 61.6009 53.8169 62.2763 53.4797C62.9257 53.1684 63.731 53.2462 64.3284 53.6872L79.9141 65.6703C80.3817 66.0594 80.6674 66.6041 80.6674 67.2266C80.6674 67.8491 80.3817 68.3938 79.9141 68.7569Z" fill="#584ADD"/>
<path d="M30.9742 26.4787C29.7273 26.4787 28.7402 25.4672 28.7402 24.2481V18.2306C28.7402 16.9856 29.7533 16 30.9742 16C32.1951 16 33.2081 17.0116 33.2081 18.2306V24.2222C33.2081 25.4672 32.1951 26.4528 30.9742 26.4528V26.4787Z" fill="#FF426B"/>
<path d="M57.939 26.4787C56.6922 26.4787 55.7051 25.4672 55.7051 24.2481V18.2306C55.7051 16.9856 56.7181 16 57.939 16C59.1599 16 60.173 17.0116 60.173 18.2306V24.2222C60.173 25.4672 59.1599 26.4528 57.939 26.4528V26.4787Z" fill="#FF426B"/>
<path d="M84.9019 26.4787C83.6551 26.4787 82.668 25.4672 82.668 24.2481V18.2306C82.668 16.9856 83.681 16 84.9019 16C86.1228 16 87.1359 17.0116 87.1359 18.2306V24.2222C87.1359 25.4672 86.1228 26.4528 84.9019 26.4528V26.4787Z" fill="#FF426B"/>
<path d="M29.791 124H100.957C102.361 124 103.498 125.138 103.498 126.542V132.442C103.498 133.846 102.361 134.983 100.957 134.983H29.791V124Z" fill="#DEDEF3"/>
<path d="M13.4956 134.999H88L93.7088 124L13.4956 124C12.6692 124 12 124.175 12 124.391V134.609C12 134.825 12.6692 135 13.4956 135V134.999Z" fill="#FF426B"/>
</svg>
