<svg width="115" height="135" viewBox="0 0 115 135" fill="none" xmlns="http://www.w3.org/2000/svg">
<path fill-rule="evenodd" clip-rule="evenodd" d="M56.5508 56.5391L102.251 72.2791L80.1708 80.1491L72.2908 102.219L56.5508 56.5391Z" fill="#FF426B"/>
<path fill-rule="evenodd" clip-rule="evenodd" d="M27.77 15.51C27.77 14.68 27.1 14 26.26 14H15.52C14.68 14 14 14.67 14 15.51V26.24C14 27.08 14.68 27.76 15.52 27.76H26.25C27.09 27.76 27.76 27.08 27.76 26.24V15.51H27.77Z" fill="#584ADD"/>
<path fill-rule="evenodd" clip-rule="evenodd" d="M19.0898 54.2593C19.0898 55.2493 19.8898 56.0593 20.8898 56.0593C21.8898 56.0593 22.6898 55.2593 22.6898 54.2593V47.5793C22.6898 46.5893 21.8898 45.7793 20.8898 45.7793C19.8898 45.7793 19.0898 46.5793 19.0898 47.5793V54.2593Z" fill="#584ADD"/>
<path fill-rule="evenodd" clip-rule="evenodd" d="M80.9602 45.7695C79.9702 45.7695 79.1602 46.5695 79.1602 47.5695V54.2495C79.1602 55.2395 79.9602 56.0495 80.9602 56.0495C81.9602 56.0495 82.7602 55.2495 82.7602 54.2495V47.5695C82.7602 46.5795 81.9602 45.7695 80.9602 45.7695Z" fill="#584ADD"/>
<path fill-rule="evenodd" clip-rule="evenodd" d="M41.0796 79.1406H34.3996C33.4096 79.1406 32.5996 79.9406 32.5996 80.9406C32.5996 81.9406 33.3996 82.7406 34.3996 82.7406H41.0796C42.0696 82.7406 42.8796 81.9406 42.8796 80.9406C42.8796 79.9506 42.0696 79.1406 41.0796 79.1406Z" fill="#584ADD"/>
<path fill-rule="evenodd" clip-rule="evenodd" d="M41.0796 19.0703H34.3996C33.4096 19.0703 32.5996 19.8703 32.5996 20.8703C32.5996 21.8703 33.3996 22.6703 34.3996 22.6703H41.0796C42.0696 22.6703 42.8796 21.8703 42.8796 20.8703C42.8796 19.8803 42.0696 19.0703 41.0796 19.0703Z" fill="#584ADD"/>
<path fill-rule="evenodd" clip-rule="evenodd" d="M54.2691 19.0703H47.5891C46.5991 19.0703 45.7891 19.8703 45.7891 20.8703C45.7891 21.8703 46.5891 22.6703 47.5891 22.6703H54.2691C55.2591 22.6703 56.0691 21.8703 56.0691 20.8703C56.0691 19.8803 55.2691 19.0703 54.2691 19.0703Z" fill="#584ADD"/>
<path fill-rule="evenodd" clip-rule="evenodd" d="M20.8898 42.8698C21.8798 42.8698 22.6898 42.0698 22.6898 41.0698V34.3898C22.6898 33.3998 21.8898 32.5898 20.8898 32.5898C19.8898 32.5898 19.0898 33.3898 19.0898 34.3898V41.0698C19.0898 42.0598 19.8998 42.8698 20.8898 42.8698Z" fill="#584ADD"/>
<path fill-rule="evenodd" clip-rule="evenodd" d="M54.2691 79.1406H47.5891C46.5991 79.1406 45.7891 79.9406 45.7891 80.9406C45.7891 81.9406 46.5891 82.7406 47.5891 82.7406H54.2691C55.2591 82.7406 56.0691 81.9406 56.0691 80.9406C56.0691 79.9506 55.2691 79.1406 54.2691 79.1406Z" fill="#584ADD"/>
<path fill-rule="evenodd" clip-rule="evenodd" d="M82.7504 34.3801C82.7504 33.3901 81.9504 32.5801 80.9504 32.5801C79.9504 32.5801 79.1504 33.3801 79.1504 34.3801V41.0601C79.1504 42.0501 79.9504 42.8601 80.9504 42.8601C81.9504 42.8601 82.7504 42.0601 82.7504 41.0601V34.3801Z" fill="#584ADD"/>
<path fill-rule="evenodd" clip-rule="evenodd" d="M19.0898 67.4409C19.0898 68.4309 19.8898 69.2409 20.8898 69.2409C21.8898 69.2409 22.6898 68.4409 22.6898 67.4409V60.7609C22.6898 59.7709 21.8898 58.9609 20.8898 58.9609C19.8898 58.9609 19.0898 59.7609 19.0898 60.7609V67.4409Z" fill="#584ADD"/>
<path fill-rule="evenodd" clip-rule="evenodd" d="M58.9707 20.8801C58.9707 21.8701 59.7707 22.6801 60.7707 22.6801H67.4507C68.4407 22.6801 69.2507 21.8801 69.2507 20.8801C69.2507 19.8801 68.4507 19.0801 67.4507 19.0801H60.7707C59.7807 19.0801 58.9707 19.8801 58.9707 20.8801Z" fill="#584ADD"/>
<path fill-rule="evenodd" clip-rule="evenodd" d="M87.8398 26.25V15.51C87.8398 14.67 87.1598 14 86.3298 14H75.5998C74.7698 14 74.0898 14.67 74.0898 15.51V26.24C74.0898 27.08 74.7698 27.76 75.5998 27.76H86.3298C87.1598 27.76 87.8398 27.08 87.8398 26.24V26.25Z" fill="#584ADD"/>
<path fill-rule="evenodd" clip-rule="evenodd" d="M14 75.5805V86.3105C14 87.1505 14.68 87.8205 15.52 87.8205H26.25C27.09 87.8205 27.76 87.1505 27.76 86.3105V75.5805C27.76 74.7405 27.09 74.0605 26.25 74.0605H15.52C14.68 74.0605 14.01 74.7405 14.01 75.5805H14Z" fill="#584ADD"/>
<path d="M29.791 124H100.957C102.361 124 103.498 125.138 103.498 126.542V132.442C103.498 133.846 102.361 134.983 100.957 134.983H29.791V124Z" fill="#DEDEF3"/>
<path d="M13.4956 134.999L50 134.999L55.7088 124H13.4956C12.6692 124 12 124.175 12 124.391V134.609C12 134.825 12.6692 135 13.4956 135V134.999Z" fill="#FF426B"/>
</svg>
