<svg width="115" height="135" viewBox="0 0 115 135" fill="none" xmlns="http://www.w3.org/2000/svg">
<path fill-rule="evenodd" clip-rule="evenodd" d="M58.3042 17C49.7941 17 42.8498 24.0124 42.8498 32.5225C42.8498 38.1051 45.7773 42.9389 50.1345 45.7302C41.0797 48.6577 33.9312 56.2828 31.8887 66.0184C31.6845 66.9715 32.2972 67.9247 33.3184 68.1289C34.2716 68.3332 35.2247 67.7204 35.429 66.6992C37.6756 55.8062 47.2751 48.045 58.3042 48.045C69.4014 48.045 78.9328 55.8062 81.1795 66.6992C81.3837 67.6523 82.3368 68.2651 83.29 68.1289C84.2431 67.9247 84.8558 66.9715 84.7197 66.0184C82.6772 56.2147 75.5287 48.6577 66.4739 45.7302C70.8311 43.007 73.8267 38.1051 73.8267 32.5225C73.8267 23.9443 66.8824 17 58.3723 17L58.3042 17Z" fill="#584ADD"/>
<path fill-rule="evenodd" clip-rule="evenodd" d="M58.3049 56.3513C57.6241 56.3513 57.0114 56.7598 56.671 57.3725L52.3819 66.155L42.7144 67.5847C41.7612 67.7208 41.0804 68.674 41.2166 69.6271C41.2166 70.0356 41.4889 70.376 41.7612 70.6483L48.7736 77.5245L47.1396 87.192C47.0035 88.1452 47.6162 89.0983 48.6374 89.3025C49.0459 89.3025 49.3863 89.3025 49.7948 89.0983L58.4411 84.5369L67.0874 89.0983C67.9724 89.5749 69.0617 89.2345 69.5383 88.3494C69.7425 88.009 69.8106 87.6005 69.7426 87.192L68.1086 77.5245L75.121 70.6483C75.8018 69.9675 75.8698 68.8101 75.121 68.0612C74.8486 67.7889 74.5082 67.5847 74.0997 67.5166L64.4322 66.0869L60.1431 57.3044C59.8708 56.6917 59.19 56.2832 58.5092 56.2832L58.3049 56.3513Z" fill="#FF426B"/>
<path fill-rule="evenodd" clip-rule="evenodd" d="M23.1738 66.8357C22.493 66.8357 21.8802 67.2441 21.5398 67.8569L17.1827 76.6393L7.51513 78.069C6.562 78.2052 5.88119 79.1583 6.01735 80.1115C6.01735 80.52 6.28967 80.8604 6.562 81.1327L13.5744 88.0089L11.9404 97.6764C11.8042 98.6295 12.417 99.5827 13.4382 99.7869C13.8467 99.7869 14.2552 99.7869 14.5956 99.5827L23.2419 95.0212L31.8882 99.5827C32.7732 100.059 33.8625 99.7188 34.3391 98.8338C34.5433 98.4934 34.6114 98.0849 34.5433 97.6764L32.9094 88.0089L39.9217 81.1327C40.6025 80.4519 40.6706 79.2945 39.9217 78.5456C39.6494 78.2733 39.309 78.069 38.9005 78.001L29.233 76.5713L24.9439 67.7888C24.6716 67.1761 23.9908 66.7676 23.3099 66.7676L23.1738 66.8357Z" fill="#FF426B"/>
<path fill-rule="evenodd" clip-rule="evenodd" d="M93.4338 66.8357C92.753 66.8357 92.1403 67.2441 91.7999 67.8569L87.5108 76.6393L77.8433 78.069C76.8901 78.2052 76.2093 79.1583 76.3455 80.1115C76.3455 80.52 76.6178 80.8604 76.8901 81.1327L83.9025 88.0089L82.2685 97.6764C82.1324 98.6295 82.7451 99.5827 83.7663 99.7869C84.1748 99.7869 84.5833 99.7869 84.9237 99.5827L93.57 95.0212L102.216 99.5827C103.101 100.059 104.191 99.7188 104.667 98.8338C104.871 98.4934 104.94 98.0849 104.871 97.6764L103.238 88.0089L110.25 81.1327C110.931 80.4519 110.999 79.2945 110.25 78.5456C109.978 78.2733 109.637 78.069 109.229 78.001L99.5611 76.5713L95.272 67.7888C94.9997 67.1761 94.3189 66.7676 93.6381 66.7676L93.4338 66.8357Z" fill="#FF426B"/>
<path d="M29.791 124H100.957C102.361 124 103.498 125.138 103.498 126.542V132.442C103.498 133.846 102.361 134.983 100.957 134.983H29.791V124Z" fill="#DEDEF3"/>
<path d="M13.4956 134.999H70L75.7088 124H13.4956C12.6692 124 12 124.175 12 124.391V134.609C12 134.825 12.6692 135 13.4956 135V134.999Z" fill="#FF426B"/>
</svg>
