<svg width="42" height="42" viewBox="0 0 42 42" fill="none" xmlns="http://www.w3.org/2000/svg">
<circle cx="20.9999" cy="20.9995" r="20" transform="rotate(180 20.9999 20.9995)" fill="#493CB5" stroke="#493CB5" stroke-width="1.82353"/>
<path d="M29.9999 21.9995C30.5522 21.9995 30.9999 21.5518 30.9999 20.9995C30.9999 20.4472 30.5522 19.9995 29.9999 19.9995V20.9995V21.9995ZM11.6457 20.2924C11.2552 20.6829 11.2552 21.3161 11.6457 21.7066L18.0097 28.0706C18.4002 28.4611 19.0334 28.4611 19.4239 28.0706C19.8144 27.6801 19.8144 27.0469 19.4239 26.6564L13.767 20.9995L19.4239 15.3427C19.8144 14.9521 19.8144 14.319 19.4239 13.9284C19.0334 13.5379 18.4002 13.5379 18.0097 13.9284L11.6457 20.2924ZM29.9999 20.9995V19.9995L12.3528 19.9995V20.9995V21.9995L29.9999 21.9995V20.9995Z" fill="#F6F5FF"/>
</svg>
