<svg width="42" height="42" viewBox="0 0 42 42" fill="none" xmlns="http://www.w3.org/2000/svg">
<circle cx="21" cy="21" r="20" fill="#493CB5" stroke="#493CB5" stroke-width="1.82353"/>
<path d="M12 20C11.4477 20 11 20.4477 11 21C11 21.5523 11.4477 22 12 22V21V20ZM30.3542 21.7071C30.7447 21.3166 30.7447 20.6834 30.3542 20.2929L23.9902 13.9289C23.5997 13.5384 22.9665 13.5384 22.576 13.9289C22.1855 14.3195 22.1855 14.9526 22.576 15.3431L28.2328 21L22.576 26.6569C22.1855 27.0474 22.1855 27.6805 22.576 28.0711C22.9665 28.4616 23.5997 28.4616 23.9902 28.0711L30.3542 21.7071ZM12 21V22H29.6471V21V20H12V21Z" fill="#F6F5FF"/>
</svg>
